# xmcd
#
# Track frame offsets:
#	150
#	14087
#	27437
#	40308
#	52932
#	66252
#	83184
#	99448
#	113125
#	127620
#	140194
#	153918
#	168917
#	179978
#	190402
#	206421
#	220576
#	229545
#
# Disc length: 3274 seconds
#
# Revision: 3
# Processed by: cddbd v1.5.2PL0 Copyright (c) Steve Scherf et al.
# Submitted via: EasyCDDAExtractor 16.0.8.2
#
DISCID=f90cc812
DTITLE=Συλλογικός δίσκος - Oldies but goodies 09
DYEAR=2010
DGENRE=Ποικίλη
TTITLE0=Ariones - Τρέμει η καρδιά μου [ελλ. απόδ. Νότης Κύτταρης]
TTITLE1=Cinquetti - Υπερήφανη Μαίρη [ελλ. απόδ. Αθ. Τσόγκας]
TTITLE2=Μάνου Νέλλη - Crazy girl [Μίμης Πλέσσας]
TTITLE3=The Daltons - Γιεζαέλ [ελλ. απόδ. Αθ. Τσόγκας]
TTITLE4=Tammy-The Sounds - Εσένα που σε ξέρω τόσο λίγο [Σταύρος Ζώρας]
TTITLE5=Χρυσός Τέρης - Νύχτα [ελλ. απόδ. Αθ. Τσόγκας]
TTITLE6=The Sounds - Η κιβωτός [ελλ. απόδ. Ρέττη Ζαλοκώστα]
TTITLE7=The Charms - Διωγμός (Επίλογος)[Μάϊκ Ροζάκης-Π. Πολλάτος]
TTITLE8=The Forminx - Say you love me [Σωτ. Αρνής-Τ. Παπασταμάτης]
TTITLE9=Mike Scott Mastersounds - Jackson
TTITLE10=The Idols - You only live twice
TTITLE11=Χρυσός Τέρης - Βρέχει [ελλ. απόδ. Σέβη Τηλιακού]
TTITLE12=Άνευ ερμηνευτού - Our love sleeps on the waters [(Β.Παπαθανασίου) Γ.Ρ
TTITLE12=ωμανός]
TTITLE13=The Forminx - Dream in my heart [Β. Παπαθανασίου-Ν. Μαστοράκης]
TTITLE14=The Idols - It don't come easy
TTITLE15=The Charms - Wonderful world
TTITLE16=Άνευ ερμηνευτού - 007 Shake [ορχηστρ., Μ. Πλέσσας]
TTITLE17=Χρυσός Τέρης - Άσε με να φύγω [Γ. Μανίκας-Ν. Ελληναίος]
EXTD=
EXTT0=
EXTT1=
EXTT2=
EXTT3=
EXTT4=
EXTT5=
EXTT6=
EXTT7=
EXTT8=
EXTT9=
EXTT10=
EXTT11=
EXTT12=
EXTT13=
EXTT14=
EXTT15=
EXTT16=
EXTT17=
PLAYORDER=
